<svg xmlns="http://www.w3.org/2000/svg" xmlns:xlink="http://www.w3.org/1999/xlink" contentStyleType="text/css" data-diagram-type="SEQUENCE" height="1367px" preserveAspectRatio="none" style="width:978px;height:1367px;background:#FFFFFF;" version="1.1" viewBox="0 0 978 1367" width="978px" zoomAndPan="magnify"><defs/><g><g><title>Northbound</title><rect fill="#FFFFFF" height="246.4722" style="stroke:#181818;stroke-width:1;" width="10" x="348.683" y="149.4799"/></g><g><title>Southbound</title><rect fill="#FFFFFF" height="189.6481" style="stroke:#181818;stroke-width:1;" width="10" x="454.2327" y="473.3642"/></g><g><title>Southbound</title><rect fill="#FFFFFF" height="274.4722" style="stroke:#181818;stroke-width:1;" width="10" x="454.2327" y="740.4243"/></g><g><title>Southbound</title><rect fill="#FFFFFF" height="175.6481" style="stroke:#181818;stroke-width:1;" width="10" x="454.2327" y="1092.3086"/></g><g><title>Node Simulator</title><rect fill="#000000" fill-opacity="0.00000" height="1215.8888" width="8" x="59.5338" y="70.0679"/><line style="stroke:#181818;stroke-width:0.5;stroke-dasharray:5,5;" x1="63" x2="63" y1="70.0679" y2="1285.9567"/></g><g><title>Northbound</title><rect fill="#000000" fill-opacity="0.00000" height="1215.8888" width="8" x="349.683" y="70.0679"/><line style="stroke:#181818;stroke-width:0.5;stroke-dasharray:5,5;" x1="352.8871" x2="352.8871" y1="70.0679" y2="1285.9567"/></g><g><title>Southbound</title><rect fill="#000000" fill-opacity="0.00000" height="1215.8888" width="8" x="455.2327" y="70.0679"/><line style="stroke:#181818;stroke-width:0.5;stroke-dasharray:5,5;" x1="458.4788" x2="458.4788" y1="70.0679" y2="1285.9567"/></g><g><title>Database</title><rect fill="#000000" fill-opacity="0.00000" height="1215.8888" width="8" x="928.963" y="70.0679"/><line style="stroke:#181818;stroke-width:0.5;stroke-dasharray:5,5;" x1="932.9391" x2="932.9391" y1="70.0679" y2="1285.9567"/></g><g class="participant participant-head" data-participant="NODE_SIM"><rect fill="#E2E2F0" height="33.0679" rx="2.5" ry="2.5" style="stroke:#181818;stroke-width:0.5;" width="117.0676" x="5" y="36"/><text fill="#000000" font-family="sans-serif" font-size="14" lengthAdjust="spacing" textLength="103.0676" x="12" y="57.9659">Node Simulator</text></g><g class="participant participant-tail" data-participant="NODE_SIM"><rect fill="#E2E2F0" height="33.0679" rx="2.5" ry="2.5" style="stroke:#181818;stroke-width:0.5;" width="117.0676" x="5" y="1284.9567"/><text fill="#000000" font-family="sans-serif" font-size="14" lengthAdjust="spacing" textLength="103.0676" x="12" y="1306.9226">Node Simulator</text></g><g class="participant participant-head" data-participant="NBAPI"><rect fill="#E2E2F0" height="33.0679" rx="2.5" ry="2.5" style="stroke:#181818;stroke-width:0.5;" width="95.5917" x="305.8871" y="36"/><text fill="#000000" font-family="sans-serif" font-size="14" lengthAdjust="spacing" textLength="81.5917" x="312.8871" y="57.9659">Northbound</text></g><g class="participant participant-tail" data-participant="NBAPI"><rect fill="#E2E2F0" height="33.0679" rx="2.5" ry="2.5" style="stroke:#181818;stroke-width:0.5;" width="95.5917" x="305.8871" y="1284.9567"/><text fill="#000000" font-family="sans-serif" font-size="14" lengthAdjust="spacing" textLength="81.5917" x="312.8871" y="1306.9226">Northbound</text></g><g class="participant participant-head" data-participant="SBAPI"><rect fill="#E2E2F0" height="33.0679" rx="2.5" ry="2.5" style="stroke:#181818;stroke-width:0.5;" width="95.5077" x="411.4788" y="36"/><text fill="#000000" font-family="sans-serif" font-size="14" lengthAdjust="spacing" textLength="81.5077" x="418.4788" y="57.9659">Southbound</text></g><g class="participant participant-tail" data-participant="SBAPI"><rect fill="#E2E2F0" height="33.0679" rx="2.5" ry="2.5" style="stroke:#181818;stroke-width:0.5;" width="95.5077" x="411.4788" y="1284.9567"/><text fill="#000000" font-family="sans-serif" font-size="14" lengthAdjust="spacing" textLength="81.5077" x="418.4788" y="1306.9226">Southbound</text></g><g class="participant participant-head" data-participant="DB"><text fill="#000000" font-family="sans-serif" font-size="14" lengthAdjust="spacing" textLength="62.0478" x="898.9391" y="65.9659">Database</text><path d="M914.963,15 C914.963,5 932.963,5 932.963,5 C932.963,5 950.963,5 950.963,15 L950.963,41 C950.963,51 932.963,51 932.963,51 C932.963,51 914.963,51 914.963,41 L914.963,15" fill="#E2E2F0" style="stroke:#181818;stroke-width:0.5;"/><path d="M914.963,15 C914.963,25 932.963,25 932.963,25 C932.963,25 950.963,25 950.963,15" fill="none" style="stroke:#181818;stroke-width:0.5;"/></g><g class="participant participant-tail" data-participant="DB"><text fill="#000000" font-family="sans-serif" font-size="14" lengthAdjust="spacing" textLength="62.0478" x="898.9391" y="1299.9226">Database</text><path d="M914.963,1314.0246 C914.963,1304.0246 932.963,1304.0246 932.963,1304.0246 C932.963,1304.0246 950.963,1304.0246 950.963,1314.0246 L950.963,1340.0246 C950.963,1350.0246 932.963,1350.0246 932.963,1350.0246 C932.963,1350.0246 914.963,1350.0246 914.963,1340.0246 L914.963,1314.0246" fill="#E2E2F0" style="stroke:#181818;stroke-width:0.5;"/><path d="M914.963,1314.0246 C914.963,1324.0246 932.963,1324.0246 932.963,1324.0246 C932.963,1324.0246 950.963,1324.0246 950.963,1314.0246" fill="none" style="stroke:#181818;stroke-width:0.5;"/></g><g><title>Northbound</title><rect fill="#FFFFFF" height="246.4722" style="stroke:#181818;stroke-width:1;" width="10" x="348.683" y="149.4799"/></g><g><title>Southbound</title><rect fill="#FFFFFF" height="189.6481" style="stroke:#181818;stroke-width:1;" width="10" x="454.2327" y="473.3642"/></g><g><title>Southbound</title><rect fill="#FFFFFF" height="274.4722" style="stroke:#181818;stroke-width:1;" width="10" x="454.2327" y="740.4243"/></g><g><title>Southbound</title><rect fill="#FFFFFF" height="175.6481" style="stroke:#181818;stroke-width:1;" width="10" x="454.2327" y="1092.3086"/></g><rect fill="#EEEEEE" height="3" style="stroke:#EEEEEE;stroke-width:1;" width="971.9868" x="0" y="101.9209"/><line style="stroke:#000000;stroke-width:1;" x1="0" x2="971.9868" y1="101.9209" y2="101.9209"/><line style="stroke:#000000;stroke-width:1;" x1="0" x2="971.9868" y1="104.9209" y2="104.9209"/><rect fill="#EEEEEE" height="25.706" style="stroke:#000000;stroke-width:2;" width="278.4072" x="346.7898" y="90.0679"/><text fill="#000000" font-family="sans-serif" font-size="13" font-weight="bold" lengthAdjust="spacing" textLength="261.0272" x="352.7898" y="107.9649">NB: Create AP node entry (unregistered)</text><g class="message" data-participant-1="NODE_SIM" data-participant-2="NBAPI"><polygon fill="#181818" points="336.683,145.4799,346.683,149.4799,336.683,153.4799,340.683,149.4799" style="stroke:#181818;stroke-width:1;"/><line style="stroke:#181818;stroke-width:1;" x1="63.5338" x2="342.683" y1="149.4799" y2="149.4799"/><text fill="#000000" font-family="sans-serif" font-size="13" lengthAdjust="spacing" textLength="266.1492" x="70.5338" y="143.6709">POST /api/v1/node/ap/woman-olive-tomato</text></g><path d="M363,162.4799 L363,366.4799 L702,366.4799 L702,172.4799 L692,162.4799 L363,162.4799" fill="#FEFFDD" style="stroke:#181818;stroke-width:0.5;"/><path d="M692,162.4799 L692,172.4799 L702,172.4799 L692,162.4799" fill="#FEFFDD" style="stroke:#181818;stroke-width:0.5;"/><text fill="#000000" font-family="sans-serif" font-size="13" lengthAdjust="spacing" textLength="54.665" x="369" y="181.377">Headers:</text><text fill="#000000" font-family="sans-serif" font-size="13" lengthAdjust="spacing" textLength="186.8882" x="375.76" y="199.083">Content-Type: application/json</text><text fill="#000000" font-family="sans-serif" font-size="13" lengthAdjust="spacing" textLength="42.744" x="369" y="216.789">Body: {</text><text fill="#000000" font-family="sans-serif" font-size="13" lengthAdjust="spacing" textLength="185.2502" x="375.76" y="234.495">"auid": "woman-olive-tomato",</text><text fill="#000000" font-family="sans-serif" font-size="13" lengthAdjust="spacing" textLength="137.1761" x="375.76" y="252.201">"allocated_auid": "No",</text><text fill="#000000" font-family="sans-serif" font-size="13" lengthAdjust="spacing" textLength="190.2812" x="375.76" y="269.907">"id": "AP-woman-olive-tomato",</text><text fill="#000000" font-family="sans-serif" font-size="13" lengthAdjust="spacing" textLength="212.9402" x="375.76" y="287.6131">"name": "AP woman-olive-tomato",</text><text fill="#000000" font-family="sans-serif" font-size="13" lengthAdjust="spacing" textLength="311.6493" x="375.76" y="305.3191">"parent_auid": "HUB_AUID", (this points to the hub)</text><text fill="#000000" font-family="sans-serif" font-size="13" lengthAdjust="spacing" textLength="152.1521" x="375.76" y="323.0251">"node_status": "Planned"</text><text fill="#000000" font-family="sans-serif" font-size="13" lengthAdjust="spacing" textLength="10.452" x="375.76" y="340.7311">...</text><text fill="#000000" font-family="sans-serif" font-size="13" lengthAdjust="spacing" textLength="4.94" x="369" y="358.4371">}</text><g class="message" data-participant-1="NBAPI" data-participant-2="NODE_SIM"><polygon fill="#181818" points="74.5338,391.9521,64.5338,395.9521,74.5338,399.9521,70.5338,395.9521" style="stroke:#181818;stroke-width:1;"/><line style="stroke:#181818;stroke-width:1;stroke-dasharray:2,2;" x1="68.5338" x2="352.683" y1="395.9521" y2="395.9521"/><text fill="#000000" font-family="sans-serif" font-size="13" lengthAdjust="spacing" textLength="177.1122" x="80.5338" y="390.1431">OK  (secret_registered=False)</text></g><rect fill="#EEEEEE" height="3" style="stroke:#EEEEEE;stroke-width:1;" width="971.9868" x="0" y="425.8052"/><line style="stroke:#000000;stroke-width:1;" x1="0" x2="971.9868" y1="425.8052" y2="425.8052"/><line style="stroke:#000000;stroke-width:1;" x1="0" x2="971.9868" y1="428.8052" y2="428.8052"/><rect fill="#EEEEEE" height="25.706" style="stroke:#000000;stroke-width:2;" width="265.5372" x="353.2248" y="413.9521"/><text fill="#000000" font-family="sans-serif" font-size="13" font-weight="bold" lengthAdjust="spacing" textLength="244.7772" x="359.2248" y="431.8492">SB: Create a secret for AP registration</text><g class="message" data-participant-1="NODE_SIM" data-participant-2="SBAPI"><polygon fill="#181818" points="442.2327,469.3642,452.2327,473.3642,442.2327,477.3642,446.2327,473.3642" style="stroke:#181818;stroke-width:1;"/><line style="stroke:#181818;stroke-width:1;" x1="63.5338" x2="448.2327" y1="473.3642" y2="473.3642"/><text fill="#000000" font-family="sans-serif" font-size="13" lengthAdjust="spacing" textLength="156.1951" x="70.5338" y="467.5552">POST /ap/register_secret/</text></g><path d="M348,486.3642 L348,602.3642 L569,602.3642 L569,496.3642 L559,486.3642 L348,486.3642" fill="#FEFFDD" style="stroke:#181818;stroke-width:0.5;"/><path d="M559,486.3642 L559,496.3642 L569,496.3642 L559,486.3642" fill="#FEFFDD" style="stroke:#181818;stroke-width:0.5;"/><text fill="#000000" font-family="sans-serif" font-size="13" lengthAdjust="spacing" textLength="199.6932" x="354" y="505.2612">This registers a secret for this AP</text><text fill="#000000" font-family="sans-serif" font-size="13" lengthAdjust="spacing" textLength="54.665" x="360.76" y="522.9672">Headers:</text><text fill="#000000" font-family="sans-serif" font-size="13" lengthAdjust="spacing" textLength="186.8882" x="367.52" y="540.6732">Content-Type: application/json</text><text fill="#000000" font-family="sans-serif" font-size="13" lengthAdjust="spacing" textLength="101.8811" x="367.52" y="558.3792">ap_auid: &lt;ap_id&gt;</text><text fill="#000000" font-family="sans-serif" font-size="13" lengthAdjust="spacing" textLength="166.5821" x="367.52" y="576.0853">secret: &lt;ap-specific_secret&gt;</text><text fill="#000000" font-family="sans-serif" font-size="13" lengthAdjust="spacing" textLength="34.424" x="360.76" y="593.7913">Body:</text><g class="message" data-participant-1="SBAPI" data-participant-2="DB"><polygon fill="#181818" points="920.963,627.3063,930.963,631.3063,920.963,635.3063,924.963,631.3063" style="stroke:#181818;stroke-width:1;"/><line style="stroke:#181818;stroke-width:1;" x1="464.2327" x2="926.963" y1="631.3063" y2="631.3063"/><text fill="#000000" font-family="sans-serif" font-size="13" lengthAdjust="spacing" textLength="165.2301" x="471.2327" y="625.4973">Store secret for AUID in DB</text></g><g class="message" data-participant-1="SBAPI" data-participant-2="NODE_SIM"><polygon fill="#181818" points="74.5338,659.0123,64.5338,663.0123,74.5338,667.0123,70.5338,663.0123" style="stroke:#181818;stroke-width:1;"/><line style="stroke:#181818;stroke-width:1;stroke-dasharray:2,2;" x1="68.5338" x2="458.2327" y1="663.0123" y2="663.0123"/><text fill="#000000" font-family="sans-serif" font-size="13" lengthAdjust="spacing" textLength="43.888" x="80.5338" y="657.2033">200 OK</text></g><rect fill="#EEEEEE" height="3" style="stroke:#EEEEEE;stroke-width:1;" width="971.9868" x="0" y="692.8653"/><line style="stroke:#000000;stroke-width:1;" x1="0" x2="971.9868" y1="692.8653" y2="692.8653"/><line style="stroke:#000000;stroke-width:1;" x1="0" x2="971.9868" y1="695.8653" y2="695.8653"/><rect fill="#EEEEEE" height="25.706" style="stroke:#000000;stroke-width:2;" width="115.0231" x="428.4819" y="681.0123"/><text fill="#000000" font-family="sans-serif" font-size="13" font-weight="bold" lengthAdjust="spacing" textLength="97.6431" x="434.4819" y="698.9093">SB: Register AP</text><g class="message" data-participant-1="NODE_SIM" data-participant-2="SBAPI"><polygon fill="#181818" points="442.2327,736.4243,452.2327,740.4243,442.2327,744.4243,446.2327,740.4243" style="stroke:#181818;stroke-width:1;"/><line style="stroke:#181818;stroke-width:1;" x1="63.5338" x2="448.2327" y1="740.4243" y2="740.4243"/><text fill="#000000" font-family="sans-serif" font-size="13" lengthAdjust="spacing" textLength="179.2311" x="70.5338" y="734.6153">POST /ap/register_candidate/</text></g><path d="M469,753.4243 L469,922.4243 L734,922.4243 L734,763.4243 L724,753.4243 L469,753.4243" fill="#FEFFDD" style="stroke:#181818;stroke-width:0.5;"/><path d="M724,753.4243 L724,763.4243 L734,763.4243 L724,753.4243" fill="#FEFFDD" style="stroke:#181818;stroke-width:0.5;"/><text fill="#000000" font-family="sans-serif" font-size="13" lengthAdjust="spacing" textLength="54.665" x="475" y="772.3214">Headers:</text><text fill="#000000" font-family="sans-serif" font-size="13" lengthAdjust="spacing" textLength="186.8882" x="481.76" y="790.0274">Content-Type: application/json</text><text fill="#000000" font-family="sans-serif" font-size="13" lengthAdjust="spacing" textLength="101.8811" x="481.76" y="807.7334">ap_auid: &lt;ap_id&gt;</text><text fill="#000000" font-family="sans-serif" font-size="13" lengthAdjust="spacing" textLength="166.5821" x="481.76" y="825.4394">secret: &lt;ap-specific_secret&gt;</text><text fill="#000000" font-family="sans-serif" font-size="13" lengthAdjust="spacing" textLength="42.744" x="475" y="843.1454">Body: {</text><text fill="#000000" font-family="sans-serif" font-size="13" lengthAdjust="spacing" textLength="104.6501" x="488.52" y="860.8514">"csi": "VERIZ001",</text><text fill="#000000" font-family="sans-serif" font-size="13" lengthAdjust="spacing" textLength="144.4431" x="488.52" y="878.5575">"installer_key": "secret",</text><text fill="#000000" font-family="sans-serif" font-size="13" lengthAdjust="spacing" textLength="231.2702" x="488.52" y="896.2635">"chosen_auid": "woman-olive-tomato"</text><text fill="#000000" font-family="sans-serif" font-size="13" lengthAdjust="spacing" textLength="4.94" x="481.76" y="913.9695">}</text><g class="message" data-participant-1="SBAPI" data-participant-2="DB"><polygon fill="#181818" points="475.2327,947.4845,465.2327,951.4845,475.2327,955.4845,471.2327,951.4845" style="stroke:#181818;stroke-width:1;"/><polygon fill="#181818" points="920.963,947.4845,930.963,951.4845,920.963,955.4845,924.963,951.4845" style="stroke:#181818;stroke-width:1;"/><line style="stroke:#181818;stroke-width:1;" x1="469.2327" x2="926.963" y1="951.4845" y2="951.4845"/><text fill="#000000" font-family="sans-serif" font-size="13" lengthAdjust="spacing" textLength="444.7303" x="481.2327" y="945.6755">Verify secret for AUID in DB and installer_key is in list of valid keys for CSI</text></g><g class="message" data-participant-1="SBAPI" data-participant-2="DB"><polygon fill="#181818" points="920.963,979.1905,930.963,983.1905,920.963,987.1905,924.963,983.1905" style="stroke:#181818;stroke-width:1;"/><line style="stroke:#181818;stroke-width:1;" x1="464.2327" x2="926.963" y1="983.1905" y2="983.1905"/><text fill="#000000" font-family="sans-serif" font-size="13" lengthAdjust="spacing" textLength="395.3173" x="471.2327" y="977.3815">Update node status to "Registered" and set auid to the gnodebid</text></g><g class="message" data-participant-1="SBAPI" data-participant-2="NODE_SIM"><polygon fill="#181818" points="74.5338,1010.8965,64.5338,1014.8965,74.5338,1018.8965,70.5338,1014.8965" style="stroke:#181818;stroke-width:1;"/><line style="stroke:#181818;stroke-width:1;stroke-dasharray:2,2;" x1="68.5338" x2="458.2327" y1="1014.8965" y2="1014.8965"/><text fill="#000000" font-family="sans-serif" font-size="13" lengthAdjust="spacing" textLength="43.888" x="80.5338" y="1009.0875">200 OK</text></g><rect fill="#EEEEEE" height="3" style="stroke:#EEEEEE;stroke-width:1;" width="971.9868" x="0" y="1044.7496"/><line style="stroke:#000000;stroke-width:1;" x1="0" x2="971.9868" y1="1044.7496" y2="1044.7496"/><line style="stroke:#000000;stroke-width:1;" x1="0" x2="971.9868" y1="1047.7496" y2="1047.7496"/><rect fill="#EEEEEE" height="25.706" style="stroke:#000000;stroke-width:2;" width="127.3081" x="422.3394" y="1032.8965"/><text fill="#000000" font-family="sans-serif" font-size="13" font-weight="bold" lengthAdjust="spacing" textLength="109.9281" x="428.3394" y="1050.7936">SB: AP Heartbeat</text><g class="message" data-participant-1="NODE_SIM" data-participant-2="SBAPI"><polygon fill="#181818" points="442.2327,1088.3086,452.2327,1092.3086,442.2327,1096.3086,446.2327,1092.3086" style="stroke:#181818;stroke-width:1;"/><line style="stroke:#181818;stroke-width:1;" x1="63.5338" x2="448.2327" y1="1092.3086" y2="1092.3086"/><text fill="#000000" font-family="sans-serif" font-size="13" lengthAdjust="spacing" textLength="152.6851" x="70.5338" y="1086.4996">POST /gnodeb/heartbeat</text></g><path d="M469,1105.3086 L469,1238.3086 L683,1238.3086 L683,1115.3086 L673,1105.3086 L469,1105.3086" fill="#FEFFDD" style="stroke:#181818;stroke-width:0.5;"/><path d="M673,1105.3086 L673,1115.3086 L683,1115.3086 L673,1105.3086" fill="#FEFFDD" style="stroke:#181818;stroke-width:0.5;"/><text fill="#000000" font-family="sans-serif" font-size="13" lengthAdjust="spacing" textLength="54.665" x="475" y="1124.2056">Headers:</text><text fill="#000000" font-family="sans-serif" font-size="13" lengthAdjust="spacing" textLength="186.8882" x="481.76" y="1141.9116">Content-Type: application/json</text><text fill="#000000" font-family="sans-serif" font-size="13" lengthAdjust="spacing" textLength="112.7101" x="481.76" y="1159.6176">gnodebid: ABC123</text><text fill="#000000" font-family="sans-serif" font-size="13" lengthAdjust="spacing" textLength="89.1801" x="481.76" y="1177.3236">secret: SECRET</text><text fill="#000000" font-family="sans-serif" font-size="13" lengthAdjust="spacing" textLength="42.744" x="475" y="1195.0297">Body: {</text><text fill="#000000" font-family="sans-serif" font-size="13" lengthAdjust="spacing" textLength="48.9841" x="481.76" y="1212.7357">"UEs": []</text><text fill="#000000" font-family="sans-serif" font-size="13" lengthAdjust="spacing" textLength="4.94" x="475" y="1230.4417">}</text><g class="message" data-participant-1="SBAPI" data-participant-2="NODE_SIM"><polygon fill="#181818" points="74.5338,1263.9567,64.5338,1267.9567,74.5338,1271.9567,70.5338,1267.9567" style="stroke:#181818;stroke-width:1;"/><line style="stroke:#181818;stroke-width:1;stroke-dasharray:2,2;" x1="68.5338" x2="458.2327" y1="1267.9567" y2="1267.9567"/><text fill="#000000" font-family="sans-serif" font-size="13" lengthAdjust="spacing" textLength="43.888" x="80.5338" y="1262.1477">200 OK</text></g><!--SRC=[hPHTRzem58Rl-HL7kIfgGsXt5nKalgQYQIqYq8jDKsHYqtXBxSXscD3K_xvZE-5h0saVLnZxzJadptkEIw8CptX9X87WKL862N-j2cAa2e1eU7mQJz9a-h5L7WkLoLUo4jIBXeFPz5YHoEfGaJW59OQiY6OGZEkLEnmFMxqU1ebXf1Wn30Op4BOK9epQmbKb57lXsZ35Q1jwlLPJ58Hzd_lw6cAOFIKBY4Z9eyrjPE_ZElekNua8PS4tB3IuDh8b9APG_2Kt8DTrxG0FZ52cT8nBW94K1fE7Yst9OY1bMV2C62v5z5LBWPAXfDiOVZXnG2fEWnY2NtC5DxMYA2G6O3Hjj8-xC_z_C0lFNnVabNaHd1SXVYnvb-1XEKm7o-auk84hatCDfUJ2Q30IJCuWhrRjEZYIIhKXfjBstgmWGZ0QkCDEfuE_RoqcA5XiE_BtOUZ0XI62V_e0SALPffX9zqxrtfD2ixQrDjbRIy0BOIsLzTdhbOCBXzw6_SGxkpSsQeAdFaRahPGRfke6MzWFRLJwE9c3C9ZziTM0cuvg3FUuuhJlDdrajnVgacLypREwhdxJ87jkhhomFqOG2OuMEwA0BW4NTWmEyFeROGnttIuIRZ3Ewu-px4ucuGAlZ0ZASVfOTDBzoLzr_pyWgMS6-oxJtFRRysG-_TJjtjPjR0T2O3SM1PRzZMsjn8VO2x9SQYRI2sFdb6yd-Eyz_sUc-7hxUmC0ES5HVi2cmQC2ELfU6r9m2hYltSrHCZsqTbbQnlxjyXDbnosOxsOYS0aqvhN5DxFuOY-iEBraV-C_sevUARF2QJhJ0BkdqCUDyaR_dxnloiLYXgFRktT7tYUJqNooE7qXbnFxjdp-SlOnEVdSdm00]--></g></svg>
