<svg xmlns="http://www.w3.org/2000/svg" xmlns:xlink="http://www.w3.org/1999/xlink" contentStyleType="text/css" data-diagram-type="SEQUENCE" height="473px" preserveAspectRatio="none" style="width:707px;height:473px;background:#FFFFFF;" version="1.1" viewBox="0 0 707 473" width="707px" zoomAndPan="magnify"><defs/><g><g><title>Northbound</title><rect fill="#FFFFFF" height="225.0602" style="stroke:#181818;stroke-width:1;" width="10" x="295.513" y="149.4799"/></g><g><title>Node Simulator</title><rect fill="#000000" fill-opacity="0.00000" height="322.4722" width="8" x="59.5338" y="70.0679"/><line style="stroke:#181818;stroke-width:0.5;stroke-dasharray:5,5;" x1="63" x2="63" y1="70.0679" y2="392.5401"/></g><g><title>Northbound</title><rect fill="#000000" fill-opacity="0.00000" height="322.4722" width="8" x="296.513" y="70.0679"/><line style="stroke:#181818;stroke-width:0.5;stroke-dasharray:5,5;" x1="299.7171" x2="299.7171" y1="70.0679" y2="392.5401"/></g><g><title>Database</title><rect fill="#000000" fill-opacity="0.00000" height="322.4722" width="8" x="508.5532" y="70.0679"/><line style="stroke:#181818;stroke-width:0.5;stroke-dasharray:5,5;" x1="512.5293" x2="512.5293" y1="70.0679" y2="392.5401"/></g><g class="participant participant-head" data-participant="NODE_SIM"><rect fill="#E2E2F0" height="33.0679" rx="2.5" ry="2.5" style="stroke:#181818;stroke-width:0.5;" width="117.0676" x="5" y="36"/><text fill="#000000" font-family="sans-serif" font-size="14" lengthAdjust="spacing" textLength="103.0676" x="12" y="57.9659">Node Simulator</text></g><g class="participant participant-tail" data-participant="NODE_SIM"><rect fill="#E2E2F0" height="33.0679" rx="2.5" ry="2.5" style="stroke:#181818;stroke-width:0.5;" width="117.0676" x="5" y="391.5401"/><text fill="#000000" font-family="sans-serif" font-size="14" lengthAdjust="spacing" textLength="103.0676" x="12" y="413.5061">Node Simulator</text></g><g class="participant participant-head" data-participant="NBAPI"><rect fill="#E2E2F0" height="33.0679" rx="2.5" ry="2.5" style="stroke:#181818;stroke-width:0.5;" width="95.5917" x="252.7171" y="36"/><text fill="#000000" font-family="sans-serif" font-size="14" lengthAdjust="spacing" textLength="81.5917" x="259.7171" y="57.9659">Northbound</text></g><g class="participant participant-tail" data-participant="NBAPI"><rect fill="#E2E2F0" height="33.0679" rx="2.5" ry="2.5" style="stroke:#181818;stroke-width:0.5;" width="95.5917" x="252.7171" y="391.5401"/><text fill="#000000" font-family="sans-serif" font-size="14" lengthAdjust="spacing" textLength="81.5917" x="259.7171" y="413.5061">Northbound</text></g><g class="participant participant-head" data-participant="DB"><text fill="#000000" font-family="sans-serif" font-size="14" lengthAdjust="spacing" textLength="62.0478" x="478.5293" y="65.9659">Database</text><path d="M494.5532,15 C494.5532,5 512.5532,5 512.5532,5 C512.5532,5 530.5532,5 530.5532,15 L530.5532,41 C530.5532,51 512.5532,51 512.5532,51 C512.5532,51 494.5532,51 494.5532,41 L494.5532,15" fill="#E2E2F0" style="stroke:#181818;stroke-width:0.5;"/><path d="M494.5532,15 C494.5532,25 512.5532,25 512.5532,25 C512.5532,25 530.5532,25 530.5532,15" fill="none" style="stroke:#181818;stroke-width:0.5;"/></g><g class="participant participant-tail" data-participant="DB"><text fill="#000000" font-family="sans-serif" font-size="14" lengthAdjust="spacing" textLength="62.0478" x="478.5293" y="406.5061">Database</text><path d="M494.5532,420.608 C494.5532,410.608 512.5532,410.608 512.5532,410.608 C512.5532,410.608 530.5532,410.608 530.5532,420.608 L530.5532,446.608 C530.5532,456.608 512.5532,456.608 512.5532,456.608 C512.5532,456.608 494.5532,456.608 494.5532,446.608 L494.5532,420.608" fill="#E2E2F0" style="stroke:#181818;stroke-width:0.5;"/><path d="M494.5532,420.608 C494.5532,430.608 512.5532,430.608 512.5532,430.608 C512.5532,430.608 530.5532,430.608 530.5532,420.608" fill="none" style="stroke:#181818;stroke-width:0.5;"/></g><g><title>Northbound</title><rect fill="#FFFFFF" height="225.0602" style="stroke:#181818;stroke-width:1;" width="10" x="295.513" y="149.4799"/></g><rect fill="#EEEEEE" height="3" style="stroke:#EEEEEE;stroke-width:1;" width="700.9753" x="0" y="101.9209"/><line style="stroke:#000000;stroke-width:1;" x1="0" x2="700.9753" y1="101.9209" y2="101.9209"/><line style="stroke:#000000;stroke-width:1;" x1="0" x2="700.9753" y1="104.9209" y2="104.9209"/><rect fill="#EEEEEE" height="25.706" style="stroke:#000000;stroke-width:2;" width="72.903" x="314.0362" y="90.0679"/><text fill="#000000" font-family="sans-serif" font-size="13" font-weight="bold" lengthAdjust="spacing" textLength="55.523" x="320.0362" y="107.9649">Add Hub</text><g class="message" data-participant-1="NODE_SIM" data-participant-2="NBAPI"><polygon fill="#181818" points="283.513,145.4799,293.513,149.4799,283.513,153.4799,287.513,149.4799" style="stroke:#181818;stroke-width:1;"/><line style="stroke:#181818;stroke-width:1;" x1="63.5338" x2="289.513" y1="149.4799" y2="149.4799"/><text fill="#000000" font-family="sans-serif" font-size="13" lengthAdjust="spacing" textLength="212.9792" x="70.5338" y="143.6709">POST /api/v1/node/hub/HUB_AUID</text></g><path d="M310,162.4799 L310,313.4799 L695,313.4799 L695,172.4799 L685,162.4799 L310,162.4799" fill="#FEFFDD" style="stroke:#181818;stroke-width:0.5;"/><path d="M685,162.4799 L685,172.4799 L695,172.4799 L685,162.4799" fill="#FEFFDD" style="stroke:#181818;stroke-width:0.5;"/><text fill="#000000" font-family="sans-serif" font-size="13" lengthAdjust="spacing" textLength="54.665" x="316" y="181.377">Headers:</text><text fill="#000000" font-family="sans-serif" font-size="13" lengthAdjust="spacing" textLength="186.8882" x="322.76" y="199.083">Content-Type: application/json</text><text fill="#000000" font-family="sans-serif" font-size="13" lengthAdjust="spacing" textLength="42.744" x="316" y="216.789">Body: {</text><text fill="#000000" font-family="sans-serif" font-size="13" lengthAdjust="spacing" textLength="156.9621" x="322.76" y="234.495">"csni": "VERIZ001NW001",</text><text fill="#000000" font-family="sans-serif" font-size="13" lengthAdjust="spacing" textLength="358.2153" x="322.76" y="252.201">"auid": "HUB_AUID", (must match the URL path parameter)</text><text fill="#000000" font-family="sans-serif" font-size="13" lengthAdjust="spacing" textLength="10.452" x="322.76" y="269.907">...</text><text fill="#000000" font-family="sans-serif" font-size="13" lengthAdjust="spacing" textLength="152.1521" x="322.76" y="287.6131">"node_status": "Planned"</text><text fill="#000000" font-family="sans-serif" font-size="13" lengthAdjust="spacing" textLength="4.94" x="316" y="305.3191">}</text><g class="message" data-participant-1="NBAPI" data-participant-2="DB"><polygon fill="#181818" points="500.5532,338.8341,510.5532,342.8341,500.5532,346.8341,504.5532,342.8341" style="stroke:#181818;stroke-width:1;"/><line style="stroke:#181818;stroke-width:1;" x1="305.513" x2="506.5532" y1="342.8341" y2="342.8341"/><text fill="#000000" font-family="sans-serif" font-size="13" lengthAdjust="spacing" textLength="183.0402" x="312.513" y="337.0251">Write new Hub record into DB</text></g><g class="message" data-participant-1="NBAPI" data-participant-2="NODE_SIM"><polygon fill="#181818" points="74.5338,370.5401,64.5338,374.5401,74.5338,378.5401,70.5338,374.5401" style="stroke:#181818;stroke-width:1;"/><line style="stroke:#181818;stroke-width:1;stroke-dasharray:2,2;" x1="68.5338" x2="299.513" y1="374.5401" y2="374.5401"/><text fill="#000000" font-family="sans-serif" font-size="13" lengthAdjust="spacing" textLength="18.2" x="80.5338" y="368.7311">OK</text></g><!--SRC=[LL1DQy904BtdLmnxQj4OlOP6C8rWQ6l4Zmgzo2IxRRQOtMLtqYAb_xsRH0-z30FlO-OzWvPa9Gqg0hRMNC1EDkqPILi6w61TPClJBdy9p7-YfRhKhU83ALriye0ZOObE0CkkMmzcQP0aiE0SLcq9IHBSBCDvhnkD88PDiTj3X4P6NxD8-JUYkYsZrI4zBGvv5YXD0gpyg0dq-_KSm4eW5zR5VWLur8g4ed1_CI86DEOiAoIfLVJfjFAKLFDB33yzcLLEIHO3UrrkyxVfTBO- -i760uYjv1ruEy_6SDUqZg11gcgWMi1X-mm6gVR3OYD8sFjUEvbC1eykmyaHKkiwgyqPbHASUV0t48f3boZeWuJpB8tXQAMFgCHttv8LbROSf2BTzNThx24C1qdeAokU_W00]--></g></svg>
