<svg xmlns="http://www.w3.org/2000/svg" xmlns:xlink="http://www.w3.org/1999/xlink" contentStyleType="text/css" data-diagram-type="SEQUENCE" height="1299px" preserveAspectRatio="none" style="width:1136px;height:1299px;background:#FFFFFF;" version="1.1" viewBox="0 0 1136 1299" width="1136px" zoomAndPan="magnify"><defs/><g><g><title>Northbound</title><rect fill="#FFFFFF" height="278.1782" style="stroke:#181818;stroke-width:1;" width="10" x="331.757" y="149.4799"/></g><g><title>Southbound</title><rect fill="#FFFFFF" height="211.0602" style="stroke:#181818;stroke-width:1;" width="10" x="437.3067" y="459.3642"/></g><g><title>Southbound</title><rect fill="#FFFFFF" height="242.7662" style="stroke:#181818;stroke-width:1;" width="10" x="437.3067" y="792.9544"/></g><g><title>Southbound</title><rect fill="#FFFFFF" height="87.118" style="stroke:#181818;stroke-width:1;" width="10" x="437.3067" y="1113.1326"/></g><g><title>Node Simulator</title><rect fill="#000000" fill-opacity="0.00000" height="1148.1828" width="8" x="59.5338" y="70.0679"/><line style="stroke:#181818;stroke-width:0.5;stroke-dasharray:5,5;" x1="63" x2="63" y1="70.0679" y2="1218.2507"/></g><g><title>Northbound</title><rect fill="#000000" fill-opacity="0.00000" height="1148.1828" width="8" x="332.757" y="70.0679"/><line style="stroke:#181818;stroke-width:0.5;stroke-dasharray:5,5;" x1="335.9612" x2="335.9612" y1="70.0679" y2="1218.2507"/></g><g><title>Southbound</title><rect fill="#000000" fill-opacity="0.00000" height="1148.1828" width="8" x="438.3067" y="70.0679"/><line style="stroke:#181818;stroke-width:0.5;stroke-dasharray:5,5;" x1="441.5529" x2="441.5529" y1="70.0679" y2="1218.2507"/></g><g><title>Database</title><rect fill="#000000" fill-opacity="0.00000" height="1148.1828" width="8" x="814.2381" y="70.0679"/><line style="stroke:#181818;stroke-width:0.5;stroke-dasharray:5,5;" x1="818.2142" x2="818.2142" y1="70.0679" y2="1218.2507"/></g><g class="participant participant-head" data-participant="NODE_SIM"><rect fill="#E2E2F0" height="33.0679" rx="2.5" ry="2.5" style="stroke:#181818;stroke-width:0.5;" width="117.0676" x="5" y="36"/><text fill="#000000" font-family="sans-serif" font-size="14" lengthAdjust="spacing" textLength="103.0676" x="12" y="57.9659">Node Simulator</text></g><g class="participant participant-tail" data-participant="NODE_SIM"><rect fill="#E2E2F0" height="33.0679" rx="2.5" ry="2.5" style="stroke:#181818;stroke-width:0.5;" width="117.0676" x="5" y="1217.2507"/><text fill="#000000" font-family="sans-serif" font-size="14" lengthAdjust="spacing" textLength="103.0676" x="12" y="1239.2166">Node Simulator</text></g><g class="participant participant-head" data-participant="NBAPI"><rect fill="#E2E2F0" height="33.0679" rx="2.5" ry="2.5" style="stroke:#181818;stroke-width:0.5;" width="95.5917" x="288.9612" y="36"/><text fill="#000000" font-family="sans-serif" font-size="14" lengthAdjust="spacing" textLength="81.5917" x="295.9612" y="57.9659">Northbound</text></g><g class="participant participant-tail" data-participant="NBAPI"><rect fill="#E2E2F0" height="33.0679" rx="2.5" ry="2.5" style="stroke:#181818;stroke-width:0.5;" width="95.5917" x="288.9612" y="1217.2507"/><text fill="#000000" font-family="sans-serif" font-size="14" lengthAdjust="spacing" textLength="81.5917" x="295.9612" y="1239.2166">Northbound</text></g><g class="participant participant-head" data-participant="SBAPI"><rect fill="#E2E2F0" height="33.0679" rx="2.5" ry="2.5" style="stroke:#181818;stroke-width:0.5;" width="95.5077" x="394.5529" y="36"/><text fill="#000000" font-family="sans-serif" font-size="14" lengthAdjust="spacing" textLength="81.5077" x="401.5529" y="57.9659">Southbound</text></g><g class="participant participant-tail" data-participant="SBAPI"><rect fill="#E2E2F0" height="33.0679" rx="2.5" ry="2.5" style="stroke:#181818;stroke-width:0.5;" width="95.5077" x="394.5529" y="1217.2507"/><text fill="#000000" font-family="sans-serif" font-size="14" lengthAdjust="spacing" textLength="81.5077" x="401.5529" y="1239.2166">Southbound</text></g><g class="participant participant-head" data-participant="DB"><text fill="#000000" font-family="sans-serif" font-size="14" lengthAdjust="spacing" textLength="62.0478" x="784.2142" y="65.9659">Database</text><path d="M800.2381,15 C800.2381,5 818.2381,5 818.2381,5 C818.2381,5 836.2381,5 836.2381,15 L836.2381,41 C836.2381,51 818.2381,51 818.2381,51 C818.2381,51 800.2381,51 800.2381,41 L800.2381,15" fill="#E2E2F0" style="stroke:#181818;stroke-width:0.5;"/><path d="M800.2381,15 C800.2381,25 818.2381,25 818.2381,25 C818.2381,25 836.2381,25 836.2381,15" fill="none" style="stroke:#181818;stroke-width:0.5;"/></g><g class="participant participant-tail" data-participant="DB"><text fill="#000000" font-family="sans-serif" font-size="14" lengthAdjust="spacing" textLength="62.0478" x="784.2142" y="1232.2166">Database</text><path d="M800.2381,1246.3186 C800.2381,1236.3186 818.2381,1236.3186 818.2381,1236.3186 C818.2381,1236.3186 836.2381,1236.3186 836.2381,1246.3186 L836.2381,1272.3186 C836.2381,1282.3186 818.2381,1282.3186 818.2381,1282.3186 C818.2381,1282.3186 800.2381,1282.3186 800.2381,1272.3186 L800.2381,1246.3186" fill="#E2E2F0" style="stroke:#181818;stroke-width:0.5;"/><path d="M800.2381,1246.3186 C800.2381,1256.3186 818.2381,1256.3186 818.2381,1256.3186 C818.2381,1256.3186 836.2381,1256.3186 836.2381,1246.3186" fill="none" style="stroke:#181818;stroke-width:0.5;"/></g><g><title>Northbound</title><rect fill="#FFFFFF" height="278.1782" style="stroke:#181818;stroke-width:1;" width="10" x="331.757" y="149.4799"/></g><g><title>Southbound</title><rect fill="#FFFFFF" height="211.0602" style="stroke:#181818;stroke-width:1;" width="10" x="437.3067" y="459.3642"/></g><g><title>Southbound</title><rect fill="#FFFFFF" height="242.7662" style="stroke:#181818;stroke-width:1;" width="10" x="437.3067" y="792.9544"/></g><g><title>Southbound</title><rect fill="#FFFFFF" height="87.118" style="stroke:#181818;stroke-width:1;" width="10" x="437.3067" y="1113.1326"/></g><rect fill="#EEEEEE" height="3" style="stroke:#EEEEEE;stroke-width:1;" width="1129.7814" x="0" y="101.9209"/><line style="stroke:#000000;stroke-width:1;" x1="0" x2="1129.7814" y1="101.9209" y2="101.9209"/><line style="stroke:#000000;stroke-width:1;" x1="0" x2="1129.7814" y1="104.9209" y2="104.9209"/><rect fill="#EEEEEE" height="25.706" style="stroke:#000000;stroke-width:2;" width="249.8331" x="439.9741" y="90.0679"/><text fill="#000000" font-family="sans-serif" font-size="13" font-weight="bold" lengthAdjust="spacing" textLength="232.4531" x="445.9741" y="107.9649">Add and register RT &lt;rt_id&gt; to an AP</text><g class="message" data-participant-1="NODE_SIM" data-participant-2="NBAPI"><polygon fill="#181818" points="319.757,145.4799,329.757,149.4799,319.757,153.4799,323.757,149.4799" style="stroke:#181818;stroke-width:1;"/><line style="stroke:#181818;stroke-width:1;" x1="63.5338" x2="325.757" y1="149.4799" y2="149.4799"/><text fill="#000000" font-family="sans-serif" font-size="13" lengthAdjust="spacing" textLength="249.2232" x="70.5338" y="143.6709">POST /api/v1/node/rt/magpie-rabbit-thin</text></g><path d="M346,162.4799 L346,366.4799 L849,366.4799 L849,172.4799 L839,162.4799 L346,162.4799" fill="#FEFFDD" style="stroke:#181818;stroke-width:0.5;"/><path d="M839,162.4799 L839,172.4799 L849,172.4799 L839,162.4799" fill="#FEFFDD" style="stroke:#181818;stroke-width:0.5;"/><text fill="#000000" font-family="sans-serif" font-size="13" lengthAdjust="spacing" textLength="54.665" x="352" y="181.377">Headers:</text><text fill="#000000" font-family="sans-serif" font-size="13" lengthAdjust="spacing" textLength="186.8882" x="358.76" y="199.083">Content-Type: application/json</text><text fill="#000000" font-family="sans-serif" font-size="13" lengthAdjust="spacing" textLength="200.2652" x="358.76" y="216.789">Authorization: Bearer &lt;user_jwt&gt;</text><text fill="#000000" font-family="sans-serif" font-size="13" lengthAdjust="spacing" textLength="42.744" x="352" y="234.495">Body: {</text><text fill="#000000" font-family="sans-serif" font-size="13" lengthAdjust="spacing" textLength="440.7523" x="358.76" y="252.201">"auid": "magpie-rabbit-thin",         // must match the URL path parameter</text><text fill="#000000" font-family="sans-serif" font-size="13" lengthAdjust="spacing" textLength="475.8264" x="358.76" y="269.907">"parent_auid": "HUB_AUID",            // AUID of the parent AP (i.e. the hub name)</text><text fill="#000000" font-family="sans-serif" font-size="13" lengthAdjust="spacing" textLength="312.4813" x="358.76" y="287.6131">"id": "RT-magpie-rabbit-thin",        // unique node ID</text><text fill="#000000" font-family="sans-serif" font-size="13" lengthAdjust="spacing" textLength="365.8983" x="358.76" y="305.3191">"node_status": "Planned",             // e.g. Planned, New, Active</text><text fill="#000000" font-family="sans-serif" font-size="13" lengthAdjust="spacing" textLength="354.3543" x="358.76" y="323.0251">"node_priority": "Bronze",            // e.g. Gold, Silver, Bronze</text><text fill="#000000" font-family="sans-serif" font-size="13" lengthAdjust="spacing" textLength="10.452" x="358.76" y="340.7311">...</text><text fill="#000000" font-family="sans-serif" font-size="13" lengthAdjust="spacing" textLength="4.94" x="352" y="358.4371">}</text><g class="message" data-participant-1="NBAPI" data-participant-2="DB"><polygon fill="#181818" points="806.2381,391.9521,816.2381,395.9521,806.2381,399.9521,810.2381,395.9521" style="stroke:#181818;stroke-width:1;"/><line style="stroke:#181818;stroke-width:1;" x1="341.757" x2="812.2381" y1="395.9521" y2="395.9521"/><text fill="#000000" font-family="sans-serif" font-size="13" lengthAdjust="spacing" textLength="172.6922" x="348.757" y="390.1431">Write new RT record into DB</text></g><g class="message" data-participant-1="NBAPI" data-participant-2="NODE_SIM"><polygon fill="#181818" points="74.5338,423.6582,64.5338,427.6582,74.5338,431.6582,70.5338,427.6582" style="stroke:#181818;stroke-width:1;"/><line style="stroke:#181818;stroke-width:1;stroke-dasharray:2,2;" x1="68.5338" x2="335.757" y1="427.6582" y2="427.6582"/><text fill="#000000" font-family="sans-serif" font-size="13" lengthAdjust="spacing" textLength="18.2" x="80.5338" y="421.8492">OK</text></g><g class="message" data-participant-1="NODE_SIM" data-participant-2="SBAPI"><polygon fill="#181818" points="425.3067,455.3642,435.3067,459.3642,425.3067,463.3642,429.3067,459.3642" style="stroke:#181818;stroke-width:1;"/><line style="stroke:#181818;stroke-width:1;" x1="63.5338" x2="431.3067" y1="459.3642" y2="459.3642"/><text fill="#000000" font-family="sans-serif" font-size="13" lengthAdjust="spacing" textLength="245.4012" x="70.5338" y="453.5552">POST /api/v1/magpie-rabbit-thin/rt-auth</text></g><path d="M452,472.3642 L452,641.3642 L1124,641.3642 L1124,482.3642 L1114,472.3642 L452,472.3642" fill="#FEFFDD" style="stroke:#181818;stroke-width:0.5;"/><path d="M1114,472.3642 L1114,482.3642 L1124,482.3642 L1114,472.3642" fill="#FEFFDD" style="stroke:#181818;stroke-width:0.5;"/><text fill="#000000" font-family="sans-serif" font-size="13" lengthAdjust="spacing" textLength="651.7814" x="458" y="491.2612">This just creates a bearer token for subsequent requests  - the auid is still "magpie-rabbit-thin" at this point</text><text fill="#000000" font-family="sans-serif" font-size="13" lengthAdjust="spacing" textLength="54.665" x="464.76" y="508.9672">Headers:</text><text fill="#000000" font-family="sans-serif" font-size="13" lengthAdjust="spacing" textLength="186.8882" x="471.52" y="526.6732">Content-Type: application/json</text><text fill="#000000" font-family="sans-serif" font-size="13" lengthAdjust="spacing" textLength="42.744" x="464.76" y="544.3792">Body: {</text><text fill="#000000" font-family="sans-serif" font-size="13" lengthAdjust="spacing" textLength="69.3681" x="471.52" y="562.0853">"sim_ki": "",</text><text fill="#000000" font-family="sans-serif" font-size="13" lengthAdjust="spacing" textLength="81.1721" x="471.52" y="579.7913">"sim_opc": "",</text><text fill="#000000" font-family="sans-serif" font-size="13" lengthAdjust="spacing" textLength="176.6311" x="471.52" y="597.4973">"nms_installer_key": "secret",</text><text fill="#000000" font-family="sans-serif" font-size="13" lengthAdjust="spacing" textLength="123.5521" x="471.52" y="615.2033">"device_key": "hello"</text><text fill="#000000" font-family="sans-serif" font-size="13" lengthAdjust="spacing" textLength="4.94" x="464.76" y="632.9093">}</text><g class="message" data-participant-1="SBAPI" data-participant-2="NODE_SIM"><polygon fill="#181818" points="74.5338,666.4243,64.5338,670.4243,74.5338,674.4243,70.5338,670.4243" style="stroke:#181818;stroke-width:1;"/><line style="stroke:#181818;stroke-width:1;stroke-dasharray:2,2;" x1="68.5338" x2="441.3067" y1="670.4243" y2="670.4243"/><text fill="#000000" font-family="sans-serif" font-size="13" lengthAdjust="spacing" textLength="43.888" x="80.5338" y="664.6153">200 OK</text></g><path d="M68,683.4243 L68,763.4243 L317,763.4243 L317,693.4243 L307,683.4243 L68,683.4243" fill="#FEFFDD" style="stroke:#181818;stroke-width:0.5;"/><path d="M307,683.4243 L307,693.4243 L317,693.4243 L307,683.4243" fill="#FEFFDD" style="stroke:#181818;stroke-width:0.5;"/><text fill="#000000" font-family="sans-serif" font-size="13" lengthAdjust="spacing" textLength="105.2221" x="74" y="702.3214">Response Body: {</text><text fill="#000000" font-family="sans-serif" font-size="13" lengthAdjust="spacing" textLength="207.9611" x="80.76" y="720.0274">"access_token": "&lt;bearer_token&gt;",</text><text fill="#000000" font-family="sans-serif" font-size="13" lengthAdjust="spacing" textLength="221.5462" x="80.76" y="737.7334">"expiry_date": "2025-10-29 08:54:39"</text><text fill="#000000" font-family="sans-serif" font-size="13" lengthAdjust="spacing" textLength="4.94" x="74" y="755.4394">}</text><g class="message" data-participant-1="NODE_SIM" data-participant-2="SBAPI"><polygon fill="#181818" points="425.3067,788.9544,435.3067,792.9544,425.3067,796.9544,429.3067,792.9544" style="stroke:#181818;stroke-width:1;"/><line style="stroke:#181818;stroke-width:1;" x1="63.5338" x2="431.3067" y1="792.9544" y2="792.9544"/><text fill="#000000" font-family="sans-serif" font-size="13" lengthAdjust="spacing" textLength="288.9252" x="70.5338" y="787.1454">POST /api/v1/magpie-rabbit-thin/rt-registration</text></g><path d="M452,805.9544 L452,974.9544 L936,974.9544 L936,815.9544 L926,805.9544 L452,805.9544" fill="#FEFFDD" style="stroke:#181818;stroke-width:0.5;"/><path d="M926,805.9544 L926,815.9544 L936,815.9544 L926,805.9544" fill="#FEFFDD" style="stroke:#181818;stroke-width:0.5;"/><text fill="#000000" font-family="sans-serif" font-size="13" lengthAdjust="spacing" textLength="54.665" x="458" y="824.8514">Headers:</text><text fill="#000000" font-family="sans-serif" font-size="13" lengthAdjust="spacing" textLength="230.5942" x="464.76" y="842.5575">Authorization: Bearer &lt;bearer_token&gt;</text><text fill="#000000" font-family="sans-serif" font-size="13" lengthAdjust="spacing" textLength="186.8882" x="464.76" y="860.2635">Content-Type: application/json</text><text fill="#000000" font-family="sans-serif" font-size="13" lengthAdjust="spacing" textLength="42.744" x="458" y="877.9695">Body: {</text><text fill="#000000" font-family="sans-serif" font-size="13" lengthAdjust="spacing" textLength="68.0811" x="464.76" y="895.6755">"params": [</text><text fill="#000000" font-family="sans-serif" font-size="13" lengthAdjust="spacing" textLength="317.0833" x="471.52" y="913.3815">{"name": "rt.info.imei", "type": "", "value": "XYZ456"},</text><text fill="#000000" font-family="sans-serif" font-size="13" lengthAdjust="spacing" textLength="450.3204" x="471.52" y="931.0875">{"name": "rt.nms.rt_access_token", "type": "", "value": "test_access_token"}</text><text fill="#000000" font-family="sans-serif" font-size="13" lengthAdjust="spacing" textLength="4.277" x="464.76" y="948.7936">]</text><text fill="#000000" font-family="sans-serif" font-size="13" lengthAdjust="spacing" textLength="4.94" x="458" y="966.4996">}</text><g class="message" data-participant-1="SBAPI" data-participant-2="DB"><polygon fill="#181818" points="458.3067,1000.0146,448.3067,1004.0146,458.3067,1008.0146,454.3067,1004.0146" style="stroke:#181818;stroke-width:1;"/><polygon fill="#181818" points="806.2381,1000.0146,816.2381,1004.0146,806.2381,1008.0146,810.2381,1004.0146" style="stroke:#181818;stroke-width:1;"/><line style="stroke:#181818;stroke-width:1;" x1="452.3067" x2="812.2381" y1="1004.0146" y2="1004.0146"/><text fill="#000000" font-family="sans-serif" font-size="13" lengthAdjust="spacing" textLength="346.9313" x="464.3067" y="998.2056">Write IMEI to node's auid, replacing "magpie-rabbit-thin"</text></g><g class="message" data-participant-1="SBAPI" data-participant-2="NODE_SIM"><polygon fill="#181818" points="74.5338,1031.7206,64.5338,1035.7206,74.5338,1039.7206,70.5338,1035.7206" style="stroke:#181818;stroke-width:1;"/><line style="stroke:#181818;stroke-width:1;stroke-dasharray:2,2;" x1="68.5338" x2="441.3067" y1="1035.7206" y2="1035.7206"/><text fill="#000000" font-family="sans-serif" font-size="13" lengthAdjust="spacing" textLength="43.888" x="80.5338" y="1029.9116">200 OK</text></g><rect fill="#EEEEEE" height="3" style="stroke:#EEEEEE;stroke-width:1;" width="1129.7814" x="0" y="1065.5736"/><line style="stroke:#000000;stroke-width:1;" x1="0" x2="1129.7814" y1="1065.5736" y2="1065.5736"/><line style="stroke:#000000;stroke-width:1;" x1="0" x2="1129.7814" y1="1068.5736" y2="1068.5736"/><rect fill="#EEEEEE" height="25.706" style="stroke:#000000;stroke-width:2;" width="103.2971" x="513.2422" y="1053.7206"/><text fill="#000000" font-family="sans-serif" font-size="13" font-weight="bold" lengthAdjust="spacing" textLength="85.9171" x="519.2422" y="1071.6176">RT Heartbeat</text><g class="message" data-participant-1="NODE_SIM" data-participant-2="SBAPI"><polygon fill="#181818" points="425.3067,1109.1326,435.3067,1113.1326,425.3067,1117.1326,429.3067,1113.1326" style="stroke:#181818;stroke-width:1;"/><line style="stroke:#181818;stroke-width:1;" x1="63.5338" x2="431.3067" y1="1113.1326" y2="1113.1326"/><text fill="#000000" font-family="sans-serif" font-size="13" lengthAdjust="spacing" textLength="192.5431" x="70.5338" y="1107.3236">POST /api/v1/XYZ456/heartbeat</text></g><path d="M452,1126.1326 L452,1171.1326 L710,1171.1326 L710,1136.1326 L700,1126.1326 L452,1126.1326" fill="#FEFFDD" style="stroke:#181818;stroke-width:0.5;"/><path d="M700,1126.1326 L700,1136.1326 L710,1136.1326 L700,1126.1326" fill="#FEFFDD" style="stroke:#181818;stroke-width:0.5;"/><text fill="#000000" font-family="sans-serif" font-size="13" lengthAdjust="spacing" textLength="54.665" x="458" y="1145.0297">Headers:</text><text fill="#000000" font-family="sans-serif" font-size="13" lengthAdjust="spacing" textLength="230.5942" x="464.76" y="1162.7357">Authorization: Bearer &lt;bearer_token&gt;</text><g class="message" data-participant-1="SBAPI" data-participant-2="NODE_SIM"><polygon fill="#181818" points="74.5338,1196.2507,64.5338,1200.2507,74.5338,1204.2507,70.5338,1200.2507" style="stroke:#181818;stroke-width:1;"/><line style="stroke:#181818;stroke-width:1;stroke-dasharray:2,2;" x1="68.5338" x2="441.3067" y1="1200.2507" y2="1200.2507"/><text fill="#000000" font-family="sans-serif" font-size="13" lengthAdjust="spacing" textLength="43.888" x="80.5338" y="1194.4417">200 OK</text></g><!--SRC=[hLNlRzis4Ftkl-AWBzrGItApPcW5nu0z5wknDWbY1_k5GQ2bYyL49ZNov3Gjyh_lICQjvJZ5LimVB8byVBgxz-xK24Eoa8rG1D6fBX7cSjtMWhI9G5WuFPk-oUUpzxsc2pHKBNMhoW2QZCzdNSHSjxk8kKUKWiHIM8He-d3dDwUJtia9ZCiIX2h1u4fQGWCN2nWQocKv0jAy1UDpE3dfRIE2U1HU_FmvP71-Dbz0AXgPRbwaYlD83QLhiMeanaOibv9YggJgAKq8Hgug0dtr43Z0MnGb6flnBS1FMX4gYXTt3MOWcgQMXI2fLNfjjVAGCIUdZVpebpEOe30SyB2rQFBhMnenQABBkmm-UNWaMbb66KIF0uhwiFsbAQnRIx0ML5H05SBbnJje15NyPyGQkIY1ZXyvm7pB-lPoaeylPzCTha3d5bsQZYkSSJNyJYQO-BMgNO9Yuky3RM2xMCHV2vDfMoN_RX5SbM4s3MVTGsv9K6iToNajbCAo6v4xYyagWOVTFfpYRH_61SaDxj0qHd9nwSuHJOnM7_5HPfxcPrqpnrpM6pHz24XFaoG9N-zxo7PoWlUypiumqqa6lp8tHu-tpc462srAa8ejnZxyRAvX70Tty3M3irzwlMS1xinflExG65sWjHr7pWyxyd55sP-nO1ljEJ8qogAI5gwT6Gg3Wj22W6Km6UaRL72b3TXsQP65O5MDkrgo0B4NrZa3cCAIhEk3jWD1Z6H8epdt_zm27NTRkSvlf5ChwdzPqKsnkwJMDfUA7LBNt2GtwDMroFdH5bBYHXQutQkmhdMqf-D3fLcTUH0dWwF1mEcprzZRiGLmWRRHYeTEjoCB9rtkg-dUDWpb3GkZRKJueP7cBkUvXGvqD3WwZbyCugFNC7YL7R_CVdYz5-2tUs7NMGSziIVH4oEeayOtQEadZMlXFtkXsJv5RaAux0qbKbtfHAvHSaD6n8H1OOWsecxzms-___7o-CVeld_eE7iWuOdUgVrJH6pwFUIzf_ohMt1Vcs4y-jBOi_TlPkw3uKR9C-jReSyDqjIYa6fri1c-vYltQUB6vzeRukBI_YVe2P537T9gU-n_a_HVzC8_]--></g></svg>
